<svg width="600" height="600" viewBox="0 0 600 600" fill="none" xmlns="http://www.w3.org/2000/svg">
<g clip-path="url(#clip0)">
<path d="M309.263 420.85C307.713 420.85 306.146 420.825 304.609 420.777L304.644 419.661C306.852 419.73 309.104 419.749 311.322 419.718L311.338 420.836C310.647 420.845 309.956 420.85 309.263 420.85ZM318.062 420.591L317.997 419.475C320.208 419.345 322.447 419.162 324.652 418.931L324.769 420.042C322.547 420.275 320.291 420.46 318.062 420.591V420.591ZM297.89 420.417C295.661 420.246 293.408 420.022 291.194 419.75L291.331 418.642C293.528 418.911 295.763 419.133 297.976 419.303L297.89 420.417ZM331.443 419.188L331.275 418.084C333.472 417.75 335.685 417.364 337.853 416.933L338.07 418.029C335.886 418.462 333.656 418.852 331.443 419.188V419.188ZM284.536 418.779C282.334 418.406 280.111 417.977 277.929 417.504L278.166 416.412C280.331 416.882 282.537 417.307 284.723 417.677L284.536 418.779ZM344.639 416.566L344.37 415.481C346.527 414.948 348.695 414.359 350.815 413.731L351.133 414.802C348.996 415.436 346.812 416.029 344.639 416.566V416.566ZM271.388 415.926C269.228 415.351 267.054 414.719 264.926 414.047L265.263 412.982C267.374 413.649 269.532 414.276 271.675 414.845L271.388 415.926ZM357.538 412.741L357.171 411.685C359.264 410.958 361.368 410.172 363.427 409.348L363.842 410.386C361.768 411.216 359.647 412.008 357.538 412.741ZM258.542 411.865C256.443 411.095 254.332 410.263 252.267 409.393L252.701 408.363C254.75 409.226 256.845 410.052 258.927 410.817L258.542 411.865ZM370.017 407.749L369.554 406.732C371.563 405.82 373.583 404.845 375.557 403.837L376.066 404.832C374.076 405.848 372.041 406.829 370.017 407.749V407.749ZM246.115 406.635C244.098 405.675 242.074 404.653 240.099 403.598L240.626 402.612C242.586 403.659 244.595 404.673 246.596 405.627L246.115 406.635ZM381.975 401.639L381.422 400.669C383.349 399.569 385.272 398.414 387.138 397.234L387.735 398.177C385.855 399.367 383.917 400.532 381.975 401.639V401.639ZM234.23 400.288C232.312 399.147 230.391 397.944 228.521 396.713L229.136 395.78C230.992 397.002 232.898 398.195 234.802 399.328L234.23 400.288ZM393.333 394.456L392.693 393.54C394.508 392.273 396.318 390.946 398.075 389.596L398.756 390.482C396.986 391.842 395.161 393.179 393.333 394.456V394.456ZM222.983 392.882C221.179 391.572 219.377 390.2 217.626 388.803L218.324 387.93C220.061 389.317 221.849 390.678 223.639 391.978L222.983 392.882ZM403.994 386.265L403.273 385.41C404.965 383.984 406.648 382.497 408.277 380.991L409.035 381.812C407.394 383.329 405.698 384.827 403.994 386.265V386.265ZM212.462 384.485C210.782 383.014 209.113 381.485 207.502 379.938L208.275 379.132C209.875 380.667 211.531 382.185 213.199 383.645L212.462 384.485ZM413.87 377.133L413.074 376.348C414.634 374.769 416.176 373.134 417.658 371.491L418.488 372.238C416.995 373.895 415.441 375.541 413.87 377.133V377.133ZM202.754 375.171C201.213 373.551 199.69 371.876 198.229 370.193L199.074 369.461C200.523 371.131 202.034 372.793 203.564 374.401L202.754 375.171ZM422.879 367.138L422.015 366.428C423.424 364.715 424.811 362.947 426.138 361.172L427.033 361.841C425.696 363.629 424.298 365.411 422.879 367.138V367.138ZM193.937 365.016C192.553 363.268 191.19 361.463 189.885 359.651L190.792 358.998C192.087 360.796 193.439 362.588 194.813 364.324L193.937 365.016ZM430.942 356.359L430.018 355.732C431.264 353.897 432.485 352.009 433.646 350.118L434.599 350.703C433.428 352.608 432.198 354.511 430.942 356.359V356.359ZM186.084 354.108C184.867 352.242 183.675 350.321 182.541 348.399L183.504 347.831C184.629 349.739 185.812 351.645 187.02 353.497L186.084 354.108ZM437.992 344.884L437.014 344.344C438.087 342.403 439.129 340.41 440.113 338.419L441.115 338.914C440.124 340.92 439.073 342.928 437.992 344.884V344.884ZM179.264 342.535C178.222 340.566 177.211 338.545 176.26 336.53L177.271 336.053C178.214 338.053 179.217 340.058 180.252 342.013L179.264 342.535ZM443.961 332.806L442.937 332.357C443.828 330.324 444.683 328.242 445.479 326.168L446.523 326.569C445.72 328.658 444.858 330.757 443.961 332.806V332.806ZM173.535 330.395C172.678 328.339 171.858 326.236 171.097 324.143L172.147 323.761C172.902 325.838 173.717 327.925 174.567 329.965L173.535 330.395ZM448.794 320.219L447.733 319.867C448.431 317.766 449.089 315.619 449.689 313.484L450.765 313.786C450.16 315.938 449.496 318.102 448.794 320.219V320.219ZM168.944 317.77C168.279 315.641 167.654 313.466 167.086 311.304L168.168 311.021C168.73 313.166 169.351 315.324 170.01 317.437L168.944 317.77ZM452.437 307.27L451.348 307.017C451.849 304.864 452.306 302.665 452.708 300.482L453.807 300.684C453.402 302.884 452.941 305.1 452.437 307.27V307.27ZM165.53 304.76C165.064 302.577 164.642 300.354 164.276 298.151L165.379 297.968C165.742 300.155 166.161 302.361 166.623 304.526L165.53 304.76ZM454.872 294.043L453.765 293.891C454.065 291.703 454.319 289.472 454.519 287.259L455.633 287.359C455.431 289.589 455.175 291.838 454.872 294.043V294.043ZM163.327 291.492C163.064 289.28 162.847 287.027 162.684 284.797L163.799 284.715C163.961 286.929 164.176 289.164 164.437 291.36L163.327 291.492ZM456.088 280.649L454.971 280.599C455.071 278.385 455.121 276.139 455.121 273.925H456.239C456.239 276.156 456.188 278.419 456.088 280.649L456.088 280.649ZM162.345 278.078C162.307 276.708 162.288 275.311 162.287 273.925C162.287 273.065 162.295 272.207 162.309 271.35L163.427 271.37C163.412 272.22 163.405 273.072 163.405 273.925C163.405 275.3 163.425 276.688 163.462 278.048L162.345 278.078ZM455.113 272.366C455.09 270.151 455.016 267.906 454.893 265.692L456.009 265.63C456.133 267.86 456.207 270.123 456.231 272.354L455.113 272.366ZM163.692 264.7L162.577 264.63C162.716 262.398 162.909 260.143 163.149 257.928L164.26 258.048C164.022 260.246 163.831 262.484 163.692 264.7ZM454.37 259.038C454.147 256.835 453.869 254.607 453.545 252.414L454.651 252.25C454.977 254.46 455.257 256.706 455.483 258.925L454.37 259.038ZM165.13 251.43L164.026 251.259C164.368 249.049 164.766 246.821 165.208 244.637L166.304 244.859C165.865 247.026 165.47 249.237 165.13 251.43ZM452.417 245.835C451.991 243.656 451.51 241.462 450.987 239.314L452.073 239.05C452.6 241.214 453.085 243.425 453.514 245.621L452.417 245.835ZM167.778 238.348L166.693 238.077C167.236 235.913 167.837 233.731 168.48 231.591L169.55 231.912C168.913 234.036 168.316 236.201 167.778 238.348ZM449.258 232.866C448.635 230.739 447.954 228.599 447.234 226.505L448.291 226.141C449.017 228.251 449.703 230.408 450.331 232.552L449.258 232.866ZM171.625 225.548L170.571 225.177C171.313 223.065 172.115 220.943 172.954 218.87L173.991 219.288C173.158 221.346 172.362 223.452 171.625 225.548ZM444.918 220.243C444.103 218.187 443.23 216.124 442.323 214.11L443.342 213.651C444.256 215.68 445.136 217.76 445.957 219.832L444.918 220.243ZM176.642 213.147L175.626 212.681C176.559 210.648 177.553 208.611 178.579 206.624L179.572 207.136C178.554 209.108 177.568 211.13 176.642 213.147ZM439.448 208.099C438.448 206.127 437.388 204.15 436.298 202.225L437.271 201.675C438.369 203.615 439.437 205.606 440.445 207.594L439.448 208.099ZM182.776 201.267L181.807 200.71C182.922 198.774 184.098 196.837 185.302 194.952L186.244 195.554C185.049 197.424 183.882 199.347 182.776 201.267ZM432.882 196.499C431.701 194.62 430.464 192.747 429.206 190.934L430.124 190.297C431.392 192.125 432.638 194.011 433.828 195.905L432.882 196.499ZM189.97 190.006L189.056 189.362C190.345 187.535 191.692 185.714 193.061 183.95L193.944 184.635C192.586 186.386 191.248 188.193 189.97 190.006ZM425.279 185.541C423.932 183.777 422.529 182.024 421.109 180.33L421.966 179.613C423.397 181.32 424.81 183.086 426.167 184.863L425.279 185.541ZM198.159 179.452L197.308 178.728C198.754 177.03 200.261 175.34 201.787 173.705L202.604 174.467C201.09 176.09 199.594 177.767 198.159 179.452ZM416.706 175.314C415.204 173.68 413.647 172.061 412.077 170.502L412.865 169.709C414.447 171.28 416.016 172.912 417.529 174.558L416.706 175.314ZM207.271 169.691L206.489 168.893C208.087 167.33 209.741 165.784 211.404 164.3L212.149 165.134C210.498 166.607 208.857 168.14 207.271 169.691V169.691ZM407.235 165.904C405.589 164.412 403.891 162.941 402.186 161.531L402.898 160.67C404.616 162.09 406.328 163.573 407.986 165.076L407.235 165.904ZM217.228 160.802L216.523 159.936C218.251 158.529 220.038 157.141 221.833 155.811L222.499 156.708C220.717 158.029 218.944 159.406 217.228 160.802V160.802ZM396.942 157.391C395.167 156.054 393.34 154.743 391.513 153.494L392.144 152.572C393.985 153.83 395.826 155.152 397.615 156.498L396.942 157.391ZM227.948 152.86L227.324 151.933C229.175 150.689 231.079 149.47 232.986 148.311L233.566 149.265C231.675 150.416 229.784 151.625 227.948 152.86V152.86ZM385.91 149.848C384.022 148.68 382.082 147.54 380.146 146.462L380.689 145.486C382.641 146.573 384.595 147.721 386.499 148.898L385.91 149.848ZM239.342 145.932L238.805 144.952C240.763 143.881 242.77 142.842 244.77 141.864L245.261 142.868C243.276 143.838 241.284 144.869 239.342 145.932ZM374.23 143.343C372.241 142.353 370.204 141.396 368.175 140.499L368.627 139.477C370.672 140.381 372.725 141.345 374.729 142.343L374.23 143.343ZM251.313 140.078L250.869 139.053C252.914 138.167 255.007 137.317 257.088 136.527L257.485 137.572C255.419 138.355 253.343 139.199 251.313 140.078H251.313ZM361.993 137.936C359.924 137.134 357.806 136.369 355.697 135.662L356.053 134.602C358.177 135.315 360.312 136.086 362.397 136.895L361.993 137.936ZM263.78 135.346L263.432 134.284C265.556 133.588 267.723 132.933 269.873 132.337L270.172 133.413C268.038 134.005 265.888 134.655 263.78 135.346V135.346ZM349.319 133.685C347.187 133.077 345.013 132.511 342.857 132.003L343.113 130.916C345.286 131.428 347.477 131.998 349.625 132.61L349.319 133.685ZM276.646 131.777L276.397 130.687C278.575 130.19 280.793 129.737 282.99 129.341L283.188 130.44C281.008 130.834 278.807 131.283 276.646 131.777ZM336.323 130.622C334.147 130.214 331.93 129.85 329.734 129.542L329.889 128.436C332.102 128.746 334.336 129.112 336.53 129.524L336.323 130.622ZM289.786 129.406L289.638 128.299C291.85 128.004 294.1 127.755 296.325 127.562L296.422 128.675C294.214 128.867 291.982 129.113 289.786 129.406V129.406ZM323.102 128.765C320.9 128.558 318.659 128.398 316.441 128.291L316.495 127.175C318.73 127.283 320.988 127.444 323.206 127.653L323.102 128.765ZM303.087 128.246L303.04 127.13C305.094 127.044 307.188 127.001 309.263 127L309.769 127.001L309.766 128.118L309.263 128.117C307.204 128.118 305.125 128.161 303.087 128.246V128.246Z" fill="url(#paint0_linear)"/>
<path d="M452.428 395.862C451.101 395.862 449.805 395.469 448.702 394.732C447.599 393.996 446.74 392.949 446.232 391.724C445.725 390.499 445.592 389.151 445.851 387.851C446.109 386.55 446.748 385.356 447.686 384.418C448.624 383.481 449.819 382.842 451.12 382.583C452.42 382.325 453.769 382.457 454.994 382.965C456.22 383.472 457.267 384.332 458.004 385.434C458.741 386.536 459.134 387.833 459.134 389.158C459.132 390.936 458.425 392.64 457.168 393.896C455.91 395.153 454.206 395.86 452.428 395.862V395.862ZM452.428 383.572C451.323 383.572 450.242 383.9 449.323 384.513C448.404 385.127 447.688 386 447.265 387.021C446.842 388.041 446.731 389.165 446.947 390.248C447.162 391.332 447.695 392.327 448.476 393.109C449.258 393.89 450.254 394.422 451.338 394.638C452.422 394.853 453.545 394.742 454.566 394.32C455.588 393.897 456.46 393.181 457.074 392.262C457.689 391.343 458.016 390.263 458.016 389.158C458.015 387.677 457.425 386.257 456.378 385.21C455.33 384.163 453.909 383.574 452.428 383.572V383.572Z" fill="#2F2E41"/>
<path d="M274.046 223.875V260.567C274.046 260.906 273.91 261.231 273.671 261.471C273.431 261.711 273.106 261.846 272.767 261.847H271.856V452.988C271.855 458.278 269.753 463.35 266.012 467.091C262.271 470.831 257.196 472.932 251.905 472.932H132.43C129.81 472.932 127.216 472.416 124.796 471.414C122.376 470.411 120.177 468.942 118.325 467.09C116.473 465.238 115.004 463.039 114.002 460.62C113 458.2 112.484 455.607 112.485 452.988V268.55H111.825C111.586 268.551 111.356 268.456 111.187 268.288C111.017 268.119 110.921 267.89 110.92 267.651V246.769C110.92 246.65 110.943 246.532 110.989 246.422C111.034 246.312 111.101 246.213 111.185 246.129C111.269 246.045 111.369 245.978 111.479 245.932C111.589 245.887 111.706 245.864 111.825 245.864H112.485V237.998H111.82C111.569 237.997 111.328 237.896 111.151 237.718C110.974 237.54 110.875 237.299 110.875 237.048V216.451C110.876 216.2 110.976 215.961 111.153 215.784C111.33 215.607 111.569 215.507 111.82 215.507H112.485V204.769H111.808C111.698 204.769 111.589 204.748 111.488 204.706C111.386 204.664 111.293 204.602 111.215 204.524C111.138 204.446 111.076 204.354 111.034 204.252C110.992 204.15 110.97 204.041 110.97 203.931V192.691C110.97 192.468 111.058 192.254 111.215 192.096C111.372 191.938 111.585 191.849 111.808 191.848H112.485V169.088C112.485 163.8 114.586 158.729 118.327 154.99C122.067 151.251 127.14 149.15 132.43 149.15H251.905C257.195 149.15 262.269 151.251 266.01 154.99C269.752 158.729 271.854 163.8 271.856 169.088V222.596H272.767C273.106 222.597 273.431 222.732 273.671 222.972C273.91 223.211 274.046 223.536 274.046 223.875V223.875Z" fill="url(#paint1_linear)"/>
<path d="M197.924 159.377H178.51C177.725 159.377 177.089 160.013 177.089 160.797V162.475C177.089 163.259 177.725 163.895 178.51 163.895H197.924C198.708 163.895 199.344 163.259 199.344 162.475V160.797C199.344 160.013 198.708 159.377 197.924 159.377Z" fill="#E6E8EC"/>
<path d="M205.272 164.198C206.688 164.198 207.836 163.051 207.836 161.636C207.836 160.221 206.688 159.074 205.272 159.074C203.857 159.074 202.709 160.221 202.709 161.636C202.709 163.051 203.857 164.198 205.272 164.198Z" fill="#E6E8EC"/>
<path d="M262.302 173.032V454.642C262.301 457.997 260.967 461.214 258.593 463.586C256.219 465.957 253.001 467.29 249.645 467.29H135.277C133.615 467.293 131.968 466.968 130.431 466.333C128.894 465.699 127.498 464.767 126.322 463.592C125.146 462.417 124.214 461.022 123.579 459.486C122.943 457.95 122.617 456.304 122.619 454.642V173.032C122.619 171.371 122.947 169.725 123.583 168.19C124.219 166.655 125.151 165.26 126.327 164.085C127.502 162.91 128.897 161.978 130.433 161.342C131.969 160.706 133.615 160.379 135.277 160.379H152.395V162.574C152.395 165.338 153.493 167.988 155.447 169.942C157.402 171.895 160.053 172.993 162.817 172.993H220.981C223.746 172.993 226.397 171.896 228.351 169.942C230.306 167.988 231.404 165.338 231.404 162.574V160.379H249.645C251.307 160.378 252.953 160.705 254.489 161.341C256.025 161.977 257.421 162.909 258.596 164.084C259.772 165.259 260.704 166.654 261.34 168.189C261.976 169.725 262.303 171.37 262.302 173.032V173.032Z" fill="url(#paint2_linear)"/>
<path opacity="0.2" d="M257.854 252.696H128.202V315.824H257.854V252.696Z" fill="black"/>
<path d="M461.273 180.63H331.621V243.758H461.273V180.63Z" fill="#F2F2F2"/>
<path d="M257.854 348.381H128.202V411.509H257.854V348.381Z" fill="url(#paint3_linear)"/>
<path d="M244.442 205.926C250.615 205.926 255.619 200.923 255.619 194.753C255.619 188.582 250.615 183.58 244.442 183.58C238.269 183.58 233.265 188.582 233.265 194.753C233.265 200.923 238.269 205.926 244.442 205.926Z" fill="white"/>
<path d="M249.472 194.393H244.801V189.725H244.083V194.393H239.412V195.112H244.083V199.78H244.801V195.112H249.472V194.393Z" fill="url(#paint4_linear)"/>
<path d="M446.743 172.251H317.092V235.378H446.743V172.251Z" fill="url(#paint5_linear)"/>
<path d="M374.969 214.635C378.363 227.177 389.988 234.945 389.988 234.945C389.988 234.945 396.11 222.378 392.716 209.836C389.322 197.294 377.697 189.527 377.697 189.527C377.697 189.527 371.575 202.094 374.969 214.635Z" fill="white"/>
<path d="M379.956 211.94C389.269 221.003 390.407 234.934 390.407 234.934C390.407 234.934 376.445 234.172 367.132 225.11C357.819 216.047 356.681 202.115 356.681 202.115C356.681 202.115 370.643 202.877 379.956 211.94Z" fill="url(#paint6_linear)"/>
<path d="M180.403 391.727C183.797 404.269 195.422 412.037 195.422 412.037C195.422 412.037 201.544 399.47 198.151 386.928C194.757 374.386 183.132 366.619 183.132 366.619C183.132 366.619 177.009 379.186 180.403 391.727Z" fill="white"/>
<path d="M185.39 389.032C194.703 398.095 195.841 412.026 195.841 412.026C195.841 412.026 181.879 411.264 172.566 402.202C163.253 393.139 162.115 379.207 162.115 379.207C162.115 379.207 176.077 379.969 185.39 389.032Z" fill="url(#paint7_linear)"/>
<path d="M211.279 391.727C207.885 404.269 196.26 412.037 196.26 412.037C196.26 412.037 190.137 399.47 193.531 386.928C196.925 374.386 208.55 366.619 208.55 366.619C208.55 366.619 214.673 379.186 211.279 391.727Z" fill="white"/>
<path d="M206.291 389.032C196.978 398.095 195.841 412.026 195.841 412.026C195.841 412.026 209.803 411.264 219.116 402.202C228.429 393.139 229.566 379.207 229.566 379.207C229.566 379.207 215.604 379.969 206.291 389.032Z" fill="url(#paint8_linear)"/>
<path d="M346.151 315.02H335.119V303.991H346.151V315.02ZM335.968 314.171H345.303V304.84H335.968V314.171Z" fill="url(#paint9_linear)"/>
<path d="M56.4714 383.22L48.9465 375.155L57.0141 367.633L64.539 375.698L56.4714 383.22ZM50.1459 375.197L56.5131 382.021L63.3395 375.656L56.9723 368.832L50.1459 375.197Z" fill="#2F2E41"/>
<path d="M62.4322 209.7C65.5428 209.7 68.0645 207.179 68.0645 204.069C68.0645 200.96 65.5428 198.439 62.4322 198.439C59.3215 198.439 56.7998 200.96 56.7998 204.069C56.7998 207.179 59.3215 209.7 62.4322 209.7Z" fill="url(#paint10_linear)"/>
<path d="M62.4322 220.335C59.214 220.335 56.0681 219.381 53.3923 217.594C50.7165 215.806 48.631 213.266 47.3995 210.294C46.1679 207.322 45.8457 204.051 46.4735 200.896C47.1014 197.741 48.6511 194.842 50.9266 192.568C53.2022 190.293 56.1015 188.744 59.2578 188.116C62.4141 187.489 65.6857 187.811 68.6589 189.042C71.6321 190.273 74.1734 192.358 75.9613 195.033C77.7492 197.707 78.7035 200.852 78.7035 204.069C78.6986 208.382 76.9828 212.516 73.9324 215.565C70.882 218.615 66.7461 220.33 62.4322 220.335V220.335ZM62.4322 189.055C59.4616 189.055 56.5577 189.935 54.0877 191.585C51.6178 193.235 49.6926 195.58 48.5558 198.323C47.419 201.067 47.1216 204.086 47.7011 206.998C48.2807 209.911 49.7112 212.586 51.8117 214.686C53.9122 216.786 56.5885 218.216 59.502 218.795C62.4155 219.375 65.4355 219.077 68.1799 217.941C70.9244 216.804 73.2702 214.88 74.9206 212.411C76.5709 209.942 77.4518 207.039 77.4518 204.069C77.4473 200.089 75.8634 196.272 73.0476 193.457C70.2319 190.643 66.4142 189.059 62.4322 189.055V189.055Z" fill="#2F2E41"/>
<path d="M285.796 242.641H156.145V305.768H285.796V242.641Z" fill="url(#paint11_linear)"/>
<path d="M221.612 264.285H220.494V305.855H221.612V264.285Z" fill="white"/>
<path d="M221.053 270.722C224.301 270.722 226.933 268.09 226.933 264.843C226.933 261.597 224.301 258.965 221.053 258.965C217.805 258.965 215.172 261.597 215.172 264.843C215.172 268.09 217.805 270.722 221.053 270.722Z" fill="url(#paint12_linear)"/>
<path d="M221.053 289.905C221.053 289.905 220.213 271.843 202.991 273.942Z" fill="white"/>
<path d="M401.033 414.367L329.115 436.858L239.651 380.424L239.647 380.42L239.353 380.239L239.305 380.207L238.594 379.761L230.076 374.404C230.092 374.259 230.112 374.118 230.14 373.982C230.271 373.32 230.573 372.703 231.016 372.195C231.171 372.012 231.34 371.843 231.523 371.688H231.527C231.607 371.62 231.691 371.552 231.78 371.488C231.868 371.419 231.96 371.355 232.057 371.295C233.704 370.19 236.187 369.72 238.775 369.58C244.362 369.315 249.922 370.519 254.898 373.074C264.955 378.159 286.57 388.164 289.941 382.035C294.361 374.002 244.138 284.436 244.138 284.436C240.004 273.813 243.03 270.343 244.926 269.25C244.982 269.218 245.038 269.186 245.091 269.158C245.292 269.055 245.5 268.966 245.713 268.893C245.825 268.852 245.939 268.819 246.055 268.793C246.085 268.784 246.116 268.777 246.147 268.772L252.809 277.625L252.909 277.757L253.267 278.235L253.375 278.38L293.758 332.031C355.632 298.695 376.926 387.858 376.926 387.858L401.033 414.367Z" fill="#FBBEBE"/>
<path d="M253.375 278.38C253.229 278.682 252.998 278.936 252.711 279.11C252.424 279.285 252.092 279.373 251.756 279.364C251.534 279.363 251.312 279.333 251.097 279.275C249.603 278.874 247.871 277.235 246.577 274.998C245.316 272.813 244.797 270.616 245.091 269.158C245.292 269.055 245.5 268.966 245.713 268.893C245.825 268.853 245.939 268.819 246.055 268.793C245.537 269.809 245.846 272.118 247.276 274.596C248.445 276.625 250.028 278.159 251.302 278.496C251.458 278.561 251.626 278.589 251.794 278.578C251.962 278.568 252.126 278.518 252.271 278.434C252.417 278.349 252.542 278.232 252.635 278.092C252.728 277.952 252.788 277.792 252.809 277.625L252.909 277.757L253.267 278.235L253.375 278.38Z" fill="url(#paint13_linear)"/>
<path d="M239.353 380.239L239.305 380.207L238.594 379.761C238.598 378.617 237.73 376.741 235.814 374.857C234.195 373.279 232.314 372.243 231.017 372.195C231.171 372.012 231.34 371.843 231.523 371.688H231.527C231.607 371.62 231.692 371.552 231.78 371.488C233.529 372.004 235.114 372.967 236.376 374.283C238.482 376.352 239.639 378.709 239.353 380.239Z" fill="url(#paint14_linear)"/>
<path d="M452.875 379.686C468.663 427.185 463.118 471.784 463.118 471.784C463.118 471.784 431.976 439.371 416.187 391.872C400.399 344.373 405.944 299.774 405.944 299.774C405.944 299.774 437.087 332.187 452.875 379.686Z" fill="url(#paint15_linear)"/>
<path d="M473.362 379.686C457.573 427.185 463.118 471.784 463.118 471.784C463.118 471.784 494.261 439.371 510.049 391.872C525.837 344.373 520.293 299.774 520.293 299.774C520.293 299.774 489.15 332.187 473.362 379.686Z" fill="url(#paint16_linear)"/>
<path d="M479.721 380.2C480.779 430.241 462.311 471.216 462.311 471.216C462.311 471.216 442.128 431.058 441.069 381.017C440.011 330.975 458.479 290 458.479 290C458.479 290 478.662 330.158 479.721 380.2Z" fill="url(#paint17_linear)"/>
<path d="M460.395 340.873C463.102 340.873 465.296 338.68 465.296 335.974C465.296 333.269 463.102 331.075 460.395 331.075C457.689 331.075 455.495 333.269 455.495 335.974C455.495 338.68 457.689 340.873 460.395 340.873Z" fill="url(#paint18_linear)"/>
<path d="M450.866 377.886C452.37 377.886 453.589 376.668 453.589 375.165C453.589 373.662 452.37 372.443 450.866 372.443C449.362 372.443 448.144 373.662 448.144 375.165C448.144 376.668 449.362 377.886 450.866 377.886Z" fill="url(#paint19_linear)"/>
<path d="M417.652 350.943C419.155 350.943 420.374 349.725 420.374 348.221C420.374 346.718 419.155 345.5 417.652 345.5C416.148 345.5 414.929 346.718 414.929 348.221C414.929 349.725 416.148 350.943 417.652 350.943Z" fill="url(#paint20_linear)"/>
<path d="M505.723 341.443C507.226 341.443 508.445 340.225 508.445 338.722C508.445 337.218 507.226 336 505.723 336C504.219 336 503 337.218 503 338.722C503 340.225 504.219 341.443 505.723 341.443Z" fill="url(#paint21_linear)"/>
<path d="M431.809 376.526C433.312 376.526 434.531 375.307 434.531 373.804C434.531 372.301 433.312 371.083 431.809 371.083C430.305 371.083 429.086 372.301 429.086 373.804C429.086 375.307 430.305 376.526 431.809 376.526Z" fill="url(#paint22_linear)"/>
<path d="M488.982 360.741C490.485 360.741 491.704 359.522 491.704 358.019C491.704 356.516 490.485 355.297 488.982 355.297C487.478 355.297 486.259 356.516 486.259 358.019C486.259 359.522 487.478 360.741 488.982 360.741Z" fill="url(#paint23_linear)"/>
<path d="M433.442 416.533C434.946 416.533 436.165 415.314 436.165 413.811C436.165 412.308 434.946 411.09 433.442 411.09C431.939 411.09 430.72 412.308 430.72 413.811C430.72 415.314 431.939 416.533 433.442 416.533Z" fill="url(#paint24_linear)"/>
<path d="M491.704 401.02C493.208 401.02 494.426 399.801 494.426 398.298C494.426 396.795 493.208 395.577 491.704 395.577C490.2 395.577 488.981 396.795 488.981 398.298C488.981 399.801 490.2 401.02 491.704 401.02Z" fill="url(#paint25_linear)"/>
<path d="M465.296 403.741C466.799 403.741 468.018 402.523 468.018 401.02C468.018 399.517 466.799 398.298 465.296 398.298C463.792 398.298 462.573 399.517 462.573 401.02C462.573 402.523 463.792 403.741 465.296 403.741Z" fill="url(#paint26_linear)"/>
</g>
<defs>
<linearGradient id="paint0_linear" x1="309.263" y1="127" x2="309.263" y2="420.85" gradientUnits="userSpaceOnUse">
<stop stop-color="#333333"/>
<stop offset="1"/>
</linearGradient>
<linearGradient id="paint1_linear" x1="192.461" y1="149.15" x2="192.461" y2="472.932" gradientUnits="userSpaceOnUse">
<stop stop-color="#333333"/>
<stop offset="1"/>
</linearGradient>
<linearGradient id="paint2_linear" x1="262.302" y1="314.064" x2="122.619" y2="314.064" gradientUnits="userSpaceOnUse">
<stop stop-color="#FF9058"/>
<stop offset="1" stop-color="#FF2627"/>
</linearGradient>
<linearGradient id="paint3_linear" x1="193.028" y1="348.381" x2="193.028" y2="411.509" gradientUnits="userSpaceOnUse">
<stop stop-color="#333333"/>
<stop offset="1"/>
</linearGradient>
<linearGradient id="paint4_linear" x1="244.442" y1="189.725" x2="244.442" y2="199.78" gradientUnits="userSpaceOnUse">
<stop stop-color="#333333"/>
<stop offset="1"/>
</linearGradient>
<linearGradient id="paint5_linear" x1="381.917" y1="172.251" x2="381.917" y2="235.378" gradientUnits="userSpaceOnUse">
<stop stop-color="#333333"/>
<stop offset="1"/>
</linearGradient>
<linearGradient id="paint6_linear" x1="390.407" y1="218.549" x2="356.681" y2="218.549" gradientUnits="userSpaceOnUse">
<stop stop-color="#FF9058"/>
<stop offset="1" stop-color="#FF2627"/>
</linearGradient>
<linearGradient id="paint7_linear" x1="195.841" y1="395.641" x2="162.115" y2="395.641" gradientUnits="userSpaceOnUse">
<stop stop-color="#FF9058"/>
<stop offset="1" stop-color="#FF2627"/>
</linearGradient>
<linearGradient id="paint8_linear" x1="229.566" y1="395.641" x2="195.841" y2="395.641" gradientUnits="userSpaceOnUse">
<stop stop-color="#FF9058"/>
<stop offset="1" stop-color="#FF2627"/>
</linearGradient>
<linearGradient id="paint9_linear" x1="340.635" y1="303.991" x2="340.635" y2="315.02" gradientUnits="userSpaceOnUse">
<stop stop-color="#333333"/>
<stop offset="1"/>
</linearGradient>
<linearGradient id="paint10_linear" x1="62.4322" y1="198.439" x2="62.4322" y2="209.7" gradientUnits="userSpaceOnUse">
<stop stop-color="#333333"/>
<stop offset="1"/>
</linearGradient>
<linearGradient id="paint11_linear" x1="220.97" y1="242.641" x2="220.97" y2="305.768" gradientUnits="userSpaceOnUse">
<stop stop-color="#333333"/>
<stop offset="1"/>
</linearGradient>
<linearGradient id="paint12_linear" x1="226.933" y1="264.852" x2="215.172" y2="264.852" gradientUnits="userSpaceOnUse">
<stop stop-color="#FF9058"/>
<stop offset="1" stop-color="#FF2627"/>
</linearGradient>
<linearGradient id="paint13_linear" x1="249.193" y1="268.793" x2="249.193" y2="279.364" gradientUnits="userSpaceOnUse">
<stop stop-color="#333333"/>
<stop offset="1"/>
</linearGradient>
<linearGradient id="paint14_linear" x1="235.206" y1="371.488" x2="235.206" y2="380.239" gradientUnits="userSpaceOnUse">
<stop stop-color="#333333"/>
<stop offset="1"/>
</linearGradient>
<linearGradient id="paint15_linear" x1="464.062" y1="385.908" x2="405" y2="385.908" gradientUnits="userSpaceOnUse">
<stop stop-color="#FF9058"/>
<stop offset="1" stop-color="#FF2627"/>
</linearGradient>
<linearGradient id="paint16_linear" x1="521.237" y1="385.908" x2="462.174" y2="385.908" gradientUnits="userSpaceOnUse">
<stop stop-color="#FF9058"/>
<stop offset="1" stop-color="#FF2627"/>
</linearGradient>
<linearGradient id="paint17_linear" x1="460.395" y1="290" x2="460.395" y2="471.216" gradientUnits="userSpaceOnUse">
<stop stop-color="#333333"/>
<stop offset="1"/>
</linearGradient>
<linearGradient id="paint18_linear" x1="465.296" y1="335.982" x2="455.495" y2="335.982" gradientUnits="userSpaceOnUse">
<stop stop-color="#FF9058"/>
<stop offset="1" stop-color="#FF2627"/>
</linearGradient>
<linearGradient id="paint19_linear" x1="453.589" y1="375.169" x2="448.144" y2="375.169" gradientUnits="userSpaceOnUse">
<stop stop-color="#FF9058"/>
<stop offset="1" stop-color="#FF2627"/>
</linearGradient>
<linearGradient id="paint20_linear" x1="417.652" y1="345.5" x2="417.652" y2="350.943" gradientUnits="userSpaceOnUse">
<stop stop-color="#333333"/>
<stop offset="1"/>
</linearGradient>
<linearGradient id="paint21_linear" x1="505.723" y1="336" x2="505.723" y2="341.443" gradientUnits="userSpaceOnUse">
<stop stop-color="#333333"/>
<stop offset="1"/>
</linearGradient>
<linearGradient id="paint22_linear" x1="431.809" y1="371.083" x2="431.809" y2="376.526" gradientUnits="userSpaceOnUse">
<stop stop-color="#333333"/>
<stop offset="1"/>
</linearGradient>
<linearGradient id="paint23_linear" x1="488.982" y1="355.297" x2="488.982" y2="360.741" gradientUnits="userSpaceOnUse">
<stop stop-color="#333333"/>
<stop offset="1"/>
</linearGradient>
<linearGradient id="paint24_linear" x1="433.442" y1="411.09" x2="433.442" y2="416.533" gradientUnits="userSpaceOnUse">
<stop stop-color="#333333"/>
<stop offset="1"/>
</linearGradient>
<linearGradient id="paint25_linear" x1="491.704" y1="395.577" x2="491.704" y2="401.02" gradientUnits="userSpaceOnUse">
<stop stop-color="#333333"/>
<stop offset="1"/>
</linearGradient>
<linearGradient id="paint26_linear" x1="468.018" y1="401.024" x2="462.573" y2="401.024" gradientUnits="userSpaceOnUse">
<stop stop-color="#FF9058"/>
<stop offset="1" stop-color="#FF2627"/>
</linearGradient>
<clipPath id="clip0">
<rect x="2" y="127" width="598" height="346" fill="white"/>
</clipPath>
</defs>
</svg>
