<svg width="600" height="600" viewBox="0 0 600 600" fill="none" xmlns="http://www.w3.org/2000/svg">
<g clip-path="url(#clip0)">
<path d="M157.037 330.668L198.072 266.175L106.174 207.772L58.7153 282.361L134.726 330.668H157.037Z" fill="#F0F0F0"/>
<path d="M215.187 350.787H113.543V330.338H215.187V350.787ZM114.863 349.468H213.867V331.657H114.863V349.468Z" fill="#3F3D56"/>
<path d="M202.646 347.159C206.292 347.159 209.247 344.205 209.247 340.562C209.247 336.919 206.292 333.966 202.646 333.966C199.001 333.966 196.046 336.919 196.046 340.562C196.046 344.205 199.001 347.159 202.646 347.159Z" fill="url(#paint0_linear)"/>
<path d="M184.166 347.159C187.811 347.159 190.766 344.205 190.766 340.562C190.766 336.919 187.811 333.966 184.166 333.966C180.52 333.966 177.565 336.919 177.565 340.562C177.565 344.205 180.52 347.159 184.166 347.159Z" fill="url(#paint1_linear)"/>
<path d="M165.685 347.159C169.33 347.159 172.285 344.205 172.285 340.562C172.285 336.919 169.33 333.966 165.685 333.966C162.04 333.966 159.085 336.919 159.085 340.562C159.085 344.205 162.04 347.159 165.685 347.159Z" fill="url(#paint2_linear)"/>
<path d="M147.204 347.159C150.849 347.159 153.805 344.205 153.805 340.562C153.805 336.919 150.849 333.966 147.204 333.966C143.559 333.966 140.604 336.919 140.604 340.562C140.604 344.205 143.559 347.159 147.204 347.159Z" fill="url(#paint3_linear)"/>
<path d="M128.724 347.159C132.369 347.159 135.324 344.205 135.324 340.562C135.324 336.919 132.369 333.966 128.724 333.966C125.078 333.966 122.123 336.919 122.123 340.562C122.123 344.205 125.078 347.159 128.724 347.159Z" fill="url(#paint4_linear)"/>
<path d="M335.971 123.54V73.4068H361.052V49H238.288V171.694H343.232V159.698C343.232 157.461 343.672 155.247 344.529 153.181C345.385 151.115 346.64 149.238 348.222 147.657C349.804 146.076 351.682 144.821 353.75 143.966C355.817 143.11 358.032 142.669 360.27 142.669H361.052V123.54H335.971Z" fill="#F0F0F0"/>
<path d="M471.937 365.629H390.094V382.78H471.937V365.629Z" fill="url(#paint5_linear)"/>
<path d="M489.757 281.194H369.633V297.026H489.757V281.194Z" fill="#F0F0F0"/>
<path d="M510.34 456H360.27C355.578 455.995 351.079 454.129 347.761 450.813C344.443 447.497 342.577 443.002 342.572 438.312V159.698C342.577 155.008 344.443 150.512 347.761 147.196C351.079 143.88 355.578 142.015 360.27 142.01H510.34C515.033 142.015 519.531 143.88 522.849 147.196C526.167 150.512 528.033 155.008 528.039 159.698V438.312C528.033 443.002 526.167 447.497 522.849 450.813C519.531 454.129 515.033 455.995 510.34 456V456ZM360.27 143.329C355.928 143.334 351.765 145.06 348.694 148.129C345.624 151.197 343.897 155.358 343.892 159.698V438.312C343.897 442.652 345.624 446.812 348.694 449.881C351.765 452.95 355.928 454.676 360.27 454.681H510.34C514.683 454.676 518.846 452.95 521.916 449.881C524.986 446.812 526.714 442.652 526.719 438.312V159.698C526.714 155.358 524.986 151.197 521.916 148.129C518.846 145.06 514.683 143.334 510.34 143.329H360.27Z" fill="#3F3D56"/>
<path d="M417.485 155.203C416.701 155.203 415.936 154.97 415.284 154.536C414.633 154.101 414.126 153.483 413.826 152.759C413.526 152.036 413.448 151.24 413.601 150.473C413.753 149.705 414.13 149 414.684 148.446C415.238 147.893 415.944 147.516 416.712 147.363C417.48 147.21 418.276 147.289 419 147.588C419.724 147.888 420.342 148.395 420.777 149.046C421.212 149.697 421.445 150.462 421.445 151.245C421.444 152.294 421.026 153.3 420.284 154.042C419.541 154.784 418.535 155.201 417.485 155.203V155.203ZM417.485 148.606C416.962 148.606 416.452 148.761 416.018 149.051C415.584 149.341 415.245 149.753 415.045 150.235C414.846 150.717 414.793 151.248 414.895 151.759C414.997 152.271 415.249 152.741 415.618 153.11C415.987 153.48 416.457 153.731 416.97 153.833C417.482 153.934 418.012 153.882 418.495 153.682C418.977 153.483 419.39 153.145 419.68 152.711C419.97 152.277 420.125 151.767 420.125 151.245C420.124 150.545 419.846 149.874 419.351 149.38C418.856 148.885 418.185 148.607 417.485 148.606V148.606Z" fill="#3F3D56"/>
<path d="M456.426 150.585H427.385V151.904H456.426V150.585Z" fill="#3F3D56"/>
<path d="M516.158 161.139V213.911C502.154 213.91 488.724 208.35 478.822 198.454C468.92 188.557 463.357 175.135 463.356 161.139H516.158Z" fill="url(#paint6_linear)"/>
<path d="M516.818 438.19H353.792V160.48H516.818V438.19ZM355.112 436.87H515.498V161.799H355.112V436.87Z" fill="#3F3D56"/>
<path opacity="0.1" d="M477.877 210.613C487.719 210.613 495.698 202.639 495.698 192.802C495.698 182.966 487.719 174.992 477.877 174.992C468.035 174.992 460.056 182.966 460.056 192.802C460.056 202.639 468.035 210.613 477.877 210.613Z" fill="black"/>
<path d="M475.237 212.592C485.079 212.592 493.057 204.618 493.057 194.781C493.057 184.945 485.079 176.971 475.237 176.971C465.395 176.971 457.416 184.945 457.416 194.781C457.416 204.618 465.395 212.592 475.237 212.592Z" fill="url(#paint7_linear)"/>
<path d="M386.133 171.694H361.052V180.929H386.133V171.694Z" fill="#3F3D56"/>
<path d="M399.994 259.426H374.913V268.661H399.994V259.426Z" fill="#3F3D56"/>
<path d="M496.357 293.728H374.913V276.577H496.357V293.728ZM376.233 292.408H495.037V277.896H376.233V292.408Z" fill="#3F3D56"/>
<path d="M489.757 331.327H369.633V347.159H489.757V331.327Z" fill="#F0F0F0"/>
<path d="M399.994 309.559H374.913V318.794H399.994V309.559Z" fill="#3F3D56"/>
<path d="M496.357 343.861H374.913V326.71H496.357V343.861ZM376.233 342.541H495.037V328.029H376.233V342.541Z" fill="#3F3D56"/>
<path d="M477.217 378.822H394.054V360.352H477.217V378.822ZM395.374 377.502H475.897V361.671H395.374V377.502Z" fill="#3F3D56"/>
<path d="M493.057 287.131C493.057 288.489 492.638 289.814 491.856 290.925C491.075 292.036 489.969 292.879 488.691 293.338C487.412 293.798 486.023 293.852 484.712 293.493C483.402 293.134 482.234 292.38 481.368 291.333L481.362 291.327C480.731 290.562 480.28 289.665 480.044 288.702C479.808 287.739 479.792 286.735 479.997 285.766C480.203 284.796 480.624 283.885 481.23 283.1C481.836 282.315 482.612 281.677 483.498 281.233C484.385 280.789 485.361 280.551 486.353 280.536C487.344 280.52 488.327 280.729 489.227 281.145C490.127 281.562 490.922 282.176 491.552 282.941C492.182 283.707 492.631 284.605 492.866 285.568C492.866 285.569 492.866 285.57 492.866 285.571C492.867 285.571 492.867 285.572 492.868 285.573C492.868 285.573 492.869 285.574 492.87 285.574C492.871 285.574 492.872 285.575 492.872 285.575C492.994 286.085 493.056 286.607 493.057 287.131V287.131Z" fill="url(#paint8_linear)"/>
<path opacity="0.1" d="M493.057 287.131C493.057 288.489 492.638 289.814 491.856 290.925C491.075 292.036 489.969 292.879 488.69 293.338C487.412 293.798 486.022 293.852 484.712 293.493C483.402 293.134 482.234 292.38 481.368 291.333L481.362 291.327C481.24 290.817 481.178 290.294 481.177 289.77C481.177 288.412 481.596 287.087 482.378 285.976C483.159 284.865 484.265 284.022 485.544 283.563C486.822 283.103 488.212 283.049 489.522 283.408C490.832 283.767 492 284.521 492.866 285.568C492.866 285.569 492.866 285.57 492.866 285.57C492.867 285.571 492.867 285.572 492.868 285.573C492.868 285.573 492.869 285.574 492.87 285.574C492.871 285.574 492.872 285.575 492.872 285.575C492.994 286.085 493.056 286.607 493.057 287.131V287.131Z" fill="black"/>
<path d="M489.097 297.686C492.742 297.686 495.697 294.732 495.697 291.089C495.697 287.446 492.742 284.493 489.097 284.493C485.452 284.493 482.497 287.446 482.497 291.089C482.497 294.732 485.452 297.686 489.097 297.686Z" fill="url(#paint9_linear)"/>
<path d="M493.057 337.264C493.057 338.622 492.638 339.947 491.856 341.058C491.075 342.169 489.969 343.012 488.691 343.471C487.412 343.931 486.023 343.985 484.712 343.626C483.402 343.267 482.234 342.513 481.368 341.466L481.362 341.459C480.731 340.695 480.28 339.797 480.044 338.835C479.808 337.872 479.792 336.868 479.997 335.898C480.203 334.929 480.624 334.017 481.23 333.233C481.836 332.448 482.612 331.81 483.498 331.366C484.385 330.922 485.361 330.684 486.353 330.669C487.344 330.653 488.327 330.862 489.227 331.278C490.127 331.695 490.922 332.309 491.552 333.074C492.182 333.84 492.631 334.738 492.866 335.701C492.866 335.702 492.866 335.703 492.866 335.703C492.867 335.704 492.867 335.705 492.868 335.705C492.868 335.706 492.869 335.707 492.87 335.707C492.871 335.707 492.872 335.707 492.872 335.707C492.994 336.217 493.056 336.74 493.057 337.264V337.264Z" fill="url(#paint10_linear)"/>
<path opacity="0.1" d="M493.057 337.264C493.057 338.622 492.638 339.947 491.856 341.058C491.075 342.169 489.969 343.012 488.69 343.471C487.412 343.931 486.022 343.985 484.712 343.626C483.402 343.267 482.234 342.513 481.368 341.466L481.362 341.46C481.24 340.95 481.178 340.427 481.177 339.903C481.177 338.545 481.596 337.22 482.378 336.109C483.159 334.998 484.265 334.155 485.544 333.696C486.822 333.236 488.212 333.182 489.522 333.541C490.832 333.9 492 334.654 492.866 335.701C492.866 335.702 492.866 335.703 492.866 335.703C492.867 335.704 492.867 335.705 492.868 335.706C492.868 335.706 492.869 335.707 492.87 335.707C492.871 335.707 492.872 335.708 492.872 335.707C492.994 336.217 493.056 336.74 493.057 337.264V337.264Z" fill="black"/>
<path d="M489.097 347.818C492.742 347.818 495.697 344.865 495.697 341.222C495.697 337.579 492.742 334.626 489.097 334.626C485.452 334.626 482.497 337.579 482.497 341.222C482.497 344.865 485.452 347.818 489.097 347.818Z" fill="url(#paint11_linear)"/>
<path d="M378.213 80.6628H343.892V114.964H378.213V80.6628Z" fill="#F0F0F0"/>
<path d="M477.877 105.729C476.31 105.729 474.779 105.265 473.476 104.395C472.174 103.526 471.159 102.289 470.559 100.843C469.96 99.3965 469.803 97.8049 470.108 96.2694C470.414 94.7339 471.168 93.3235 472.276 92.2164C473.384 91.1094 474.795 90.3555 476.331 90.05C477.868 89.7446 479.46 89.9014 480.908 90.5005C482.355 91.0996 483.592 92.1142 484.462 93.4159C485.332 94.7177 485.797 96.2481 485.797 97.8137C485.795 99.9123 484.959 101.924 483.475 103.408C481.99 104.892 479.976 105.727 477.877 105.729V105.729ZM477.877 91.2172C476.571 91.2172 475.295 91.6041 474.21 92.3289C473.124 93.0538 472.278 94.084 471.779 95.2893C471.279 96.4947 471.148 97.821 471.403 99.1006C471.658 100.38 472.286 101.556 473.21 102.478C474.133 103.401 475.309 104.029 476.589 104.283C477.869 104.538 479.196 104.407 480.402 103.908C481.608 103.409 482.639 102.563 483.365 101.478C484.09 100.394 484.477 99.1183 484.477 97.8137C484.475 96.0648 483.779 94.3881 482.541 93.1515C481.304 91.9149 479.626 91.2192 477.877 91.2172V91.2172Z" fill="#3F3D56"/>
<path d="M303.63 215.89H286.469V198.739H303.63V215.89ZM287.79 214.57H302.31V200.058H287.79V214.57Z" fill="#3F3D56"/>
<path d="M565 343.861H547.839V326.71H565V343.861ZM549.159 342.541H563.68V328.029H549.159V342.541Z" fill="#3F3D56"/>
<path d="M226.409 228.863L229.354 230.448L239.374 235.845L255.552 244.556L264.979 227.075C265.867 225.432 266.422 223.631 266.613 221.774C266.803 219.917 266.625 218.04 266.089 216.252C265.553 214.463 264.67 212.798 263.489 211.351C262.308 209.905 260.853 208.705 259.208 207.821C255.692 205.923 251.664 205.19 247.705 205.727C243.745 206.264 240.059 208.043 237.176 210.808L237.171 210.813C235.752 212.175 234.555 213.749 233.623 215.48L226.409 228.863Z" fill="#2F2E41"/>
<path d="M270.563 407.145L268.587 428.873L261.175 429.86L256.234 405.169L270.563 407.145Z" fill="#FFB8B8"/>
<path d="M259.198 429.861C259.198 429.861 268.587 424.922 270.563 428.873C270.563 428.873 269.081 440.725 275.01 442.206C280.939 443.688 283.41 454.058 275.01 455.046C266.61 456.033 261.175 453.071 258.21 453.071C255.246 453.071 258.21 442.7 258.21 442.7L259.198 429.861Z" fill="#2F2E41"/>
<path d="M210.775 407.145L212.752 428.873L220.163 429.86L225.104 405.169L210.775 407.145Z" fill="#FFB8B8"/>
<path d="M222.14 429.861C222.14 429.861 212.752 424.922 210.775 428.873C210.775 428.873 212.258 440.725 206.328 442.206C200.399 443.688 197.928 454.058 206.328 455.046C214.728 456.033 220.163 453.071 223.128 453.071C226.093 453.071 223.128 442.7 223.128 442.7L222.14 429.861Z" fill="#2F2E41"/>
<path d="M251.293 232.823C258.388 232.823 264.139 227.075 264.139 219.984C264.139 212.892 258.388 207.144 251.293 207.144C244.197 207.144 238.446 212.892 238.446 219.984C238.446 227.075 244.197 232.823 251.293 232.823Z" fill="#FFB8B8"/>
<path d="M210.281 245.169L220.657 261.465L233.01 260.478L253.269 261.959C253.269 261.959 255.181 258.137 256.743 254.418C257.597 252.561 258.255 250.62 258.704 248.626C259.198 245.169 252.281 241.712 252.281 241.712C252.281 241.712 252.009 241.663 251.554 241.554C250.952 241.411 250.023 241.174 249.005 240.828C246.707 240.048 243.945 238.724 243.387 236.774C242.398 233.317 249.81 228.379 249.81 228.379L240.916 219.984C240.916 219.984 233.015 230.952 223.42 233.45C222.863 233.597 222.299 233.713 221.73 233.796C221.7 233.801 221.675 233.806 221.646 233.811C211.269 235.292 210.281 245.169 210.281 245.169Z" fill="#FFB8B8"/>
<path d="M215.716 240.724L210.281 245.169C210.281 245.169 205.834 266.403 207.316 272.329C208.799 278.255 206.822 283.687 206.822 284.675C206.822 285.663 202.375 322.7 202.375 322.7C202.375 322.7 193.481 342.453 202.869 340.478C212.257 338.502 208.799 318.749 208.799 318.749L220.163 284.181V255.045L215.716 240.724Z" fill="#FFB8B8"/>
<path d="M254.751 244.675L258.704 247.638L260.681 289.12L275.504 324.675C275.504 324.675 286.375 341.959 279.457 342.453C272.539 342.947 268.092 324.675 268.092 324.675L254.751 290.601L252.775 257.515L254.751 244.675Z" fill="#FFB8B8"/>
<path d="M230.046 247.638C230.046 247.638 239.928 254.552 255.74 252.082C255.74 252.082 260.187 260.971 257.716 265.91C255.245 270.848 260.681 282.7 261.669 284.181C262.657 285.663 274.022 316.28 277.975 349.367C281.928 382.453 292.798 405.169 283.41 408.132C274.022 411.095 254.751 414.552 252.775 411.589C250.798 408.626 247.834 335.046 247.834 335.046L242.398 363.194C242.398 363.194 249.81 411.095 244.375 412.083C238.94 413.07 204.846 410.107 205.834 404.181C206.822 398.256 216.705 367.144 216.705 367.144C216.705 367.144 216.21 304.922 226.093 293.07C226.093 293.07 230.046 286.65 224.61 278.255C219.175 269.86 219.669 256.527 219.669 256.527C219.669 256.527 223.622 256.527 230.046 247.638Z" fill="#2F2E41"/>
<path d="M221.73 233.796L230.046 252.083L232.022 251.095L223.419 233.45L221.73 233.796Z" fill="#2F2E41"/>
<path d="M249.005 240.828L255.246 254.552L256.743 254.418L256.234 252.082L251.554 241.554C250.952 241.411 250.023 241.174 249.005 240.828Z" fill="#2F2E41"/>
<path d="M229.354 230.448C229.829 231.976 230.745 233.329 231.986 234.339C233.227 235.349 234.739 235.97 236.333 236.125C237.926 236.28 239.529 235.962 240.942 235.21C242.355 234.459 243.515 233.307 244.276 231.9C238.026 223.732 243.387 218.601 253.541 214.719C254.306 213.301 254.631 211.687 254.475 210.083C254.319 208.479 253.69 206.957 252.666 205.712C249.867 205.354 247.024 205.626 244.344 206.508C241.664 207.39 239.215 208.859 237.176 210.808L237.171 210.813L229.957 224.186C229.443 225.137 229.125 226.181 229.021 227.256C228.918 228.331 229.031 229.417 229.354 230.448V230.448Z" fill="#2F2E41"/>
<path d="M243.634 224.428C244.589 224.428 245.363 223.102 245.363 221.465C245.363 219.829 244.589 218.502 243.634 218.502C242.679 218.502 241.904 219.829 241.904 221.465C241.904 223.102 242.679 224.428 243.634 224.428Z" fill="#FFB8B8"/>
<path d="M248.787 216.631L263.64 223.356L266.363 217.352C265.894 215.157 264.912 213.104 263.497 211.361L253.274 206.734L248.787 216.631Z" fill="#2F2E41"/>
<path d="M284.489 349.138C288.135 349.138 291.09 346.184 291.09 342.541C291.09 338.898 288.135 335.945 284.489 335.945C280.844 335.945 277.889 338.898 277.889 342.541C277.889 346.184 280.844 349.138 284.489 349.138Z" fill="url(#paint12_linear)"/>
<path d="M72.5928 388.351C74.9751 388.351 76.9063 386.421 76.9063 384.04C76.9063 381.659 74.9751 379.729 72.5928 379.729C70.2105 379.729 68.2793 381.659 68.2793 384.04C68.2793 386.421 70.2105 388.351 72.5928 388.351Z" fill="#FF6584"/>
<path d="M94.3857 406.509H93.0657V455.594H94.3857V406.509Z" fill="#3F3D56"/>
<path d="M93.7258 413.45C97.5616 413.45 100.671 410.342 100.671 406.509C100.671 402.675 97.5616 399.567 93.7258 399.567C89.89 399.567 86.7805 402.675 86.7805 406.509C86.7805 410.342 89.89 413.45 93.7258 413.45Z" fill="#3F3D56"/>
<path d="M93.7259 436.761C93.7259 436.761 92.7337 415.433 72.3938 417.912Z" fill="#3F3D56"/>
</g>
<defs>
<linearGradient id="paint0_linear" x1="209.247" y1="340.572" x2="196.046" y2="340.572" gradientUnits="userSpaceOnUse">
<stop stop-color="#FF9058"/>
<stop offset="1" stop-color="#FF2627"/>
</linearGradient>
<linearGradient id="paint1_linear" x1="190.766" y1="340.572" x2="177.565" y2="340.572" gradientUnits="userSpaceOnUse">
<stop stop-color="#FF9058"/>
<stop offset="1" stop-color="#FF2627"/>
</linearGradient>
<linearGradient id="paint2_linear" x1="172.285" y1="340.572" x2="159.085" y2="340.572" gradientUnits="userSpaceOnUse">
<stop stop-color="#FF9058"/>
<stop offset="1" stop-color="#FF2627"/>
</linearGradient>
<linearGradient id="paint3_linear" x1="153.805" y1="340.572" x2="140.604" y2="340.572" gradientUnits="userSpaceOnUse">
<stop stop-color="#FF9058"/>
<stop offset="1" stop-color="#FF2627"/>
</linearGradient>
<linearGradient id="paint4_linear" x1="135.324" y1="340.572" x2="122.123" y2="340.572" gradientUnits="userSpaceOnUse">
<stop stop-color="#FF9058"/>
<stop offset="1" stop-color="#FF2627"/>
</linearGradient>
<linearGradient id="paint5_linear" x1="471.937" y1="374.217" x2="390.094" y2="374.217" gradientUnits="userSpaceOnUse">
<stop stop-color="#FF9058"/>
<stop offset="1" stop-color="#FF2627"/>
</linearGradient>
<linearGradient id="paint6_linear" x1="516.158" y1="187.565" x2="463.356" y2="187.565" gradientUnits="userSpaceOnUse">
<stop stop-color="#FF9058"/>
<stop offset="1" stop-color="#FF2627"/>
</linearGradient>
<linearGradient id="paint7_linear" x1="493.057" y1="194.808" x2="457.416" y2="194.808" gradientUnits="userSpaceOnUse">
<stop stop-color="#FF9058"/>
<stop offset="1" stop-color="#FF2627"/>
</linearGradient>
<linearGradient id="paint8_linear" x1="493.057" y1="287.141" x2="479.854" y2="287.141" gradientUnits="userSpaceOnUse">
<stop stop-color="#FF9058"/>
<stop offset="1" stop-color="#FF2627"/>
</linearGradient>
<linearGradient id="paint9_linear" x1="495.697" y1="291.099" x2="482.497" y2="291.099" gradientUnits="userSpaceOnUse">
<stop stop-color="#FF9058"/>
<stop offset="1" stop-color="#FF2627"/>
</linearGradient>
<linearGradient id="paint10_linear" x1="493.057" y1="337.274" x2="479.854" y2="337.274" gradientUnits="userSpaceOnUse">
<stop stop-color="#FF9058"/>
<stop offset="1" stop-color="#FF2627"/>
</linearGradient>
<linearGradient id="paint11_linear" x1="495.697" y1="341.232" x2="482.497" y2="341.232" gradientUnits="userSpaceOnUse">
<stop stop-color="#FF9058"/>
<stop offset="1" stop-color="#FF2627"/>
</linearGradient>
<linearGradient id="paint12_linear" x1="291.09" y1="342.551" x2="277.889" y2="342.551" gradientUnits="userSpaceOnUse">
<stop stop-color="#FF9058"/>
<stop offset="1" stop-color="#FF2627"/>
</linearGradient>
<clipPath id="clip0">
<rect x="35" y="49" width="530" height="407" fill="white"/>
</clipPath>
</defs>
</svg>
